<?xml version="1.0" encoding="UTF-8" standalone="no"?>
<svg width="792px" height="138px" viewBox="0 0 792 138" version="1.1" xmlns="http://www.w3.org/2000/svg" xmlns:xlink="http://www.w3.org/1999/xlink" xmlns:sketch="http://www.bohemiancoding.com/sketch/ns">
    <!-- Generator: Sketch 3.3.3 (12072) - http://www.bohemiancoding.com/sketch -->
    <title>Group</title>
    <desc>Created with Sketch.</desc>
    <defs></defs>
    <g id="Page-1" stroke="none" stroke-width="1" fill="none" fill-rule="evenodd" sketch:type="MSPage">
        <g id="spring_logo" sketch:type="MSLayerGroup" fill="#FFFFFF">
            <g id="Group" sketch:type="MSShapeGroup">
                <path d="M630.1,134.8 L612.4,134.8 L611.9,134.1 L532.7,36.6 L532.7,134.8 L513.2,134.8 L513.2,2.8 L530.9,2.8 L610.7,101.5 L610.7,2.8 L630.1,2.8 L630.1,134.8 Z" id="Shape"></path>
                <rect id="Rectangle-path" x="447.7" y="2.8" width="19.6" height="132"></rect>
                <path d="M409.4,134.8 L383.9,134.8 L343.9,92.7 L315.4,92.7 L315.4,134.8 L295.8,134.8 L295.8,2.8 L355.9,2.8 C385.6,2.8 401.2,25.3 401.2,47.6 C401.4,65.5 392.4,86.9 366.5,90.9 L409.4,134.8 L409.4,134.8 Z M315.6,74.6 L355.4,74.6 C373.6,74.6 381.8,61.2 381.8,47.9 C382,40.6 378.8,33 373.8,27.9 C369.2,23.3 363,20.8 356.1,20.8 L315.6,20.8 L315.6,74.6 L315.6,74.6 Z" id="Shape"></path>
                <path d="M740.5,137.2 C689.7,137.2 671.7,100.9 671.7,70 C671.5,49.8 678.4,31.8 691,19.2 C703.4,6.8 720.4,0.3 740.4,0.3 C758.6,0.3 776,7.4 788.9,20.1 L790.1,21.3 L778.4,34.7 L777,33.3 C767.8,24.3 753.6,18.8 740.4,18.8 C706.6,18.8 691.4,45.3 691.4,69.9 C691.4,94.1 706.6,118.4 740.8,118.4 C753,118.4 764.5,114.3 773.9,106.4 L773.9,78.6 L733.9,78.6 L733.9,60.7 L792,60.7 L792,114.1 L791.5,114.6 C777.5,129.8 760.7,137.2 740.5,137.2 L740.5,137.2 Z" id="Shape"></path>
                <path d="M55.7,137.6 C34.8,137.6 17.7,130.9 1.4,116.4 L0,115.1 L0.9,113.3 L11.7,100.6 L13.1,101.8 C27.3,114.7 39.6,119.7 56.1,119.7 C71.7,119.7 82.6,111.6 82.6,100.1 C82.6,91.3 80.1,83.6 50.8,77.5 C18.2,70.4 5.7,59.3 5.7,38.1 C5.9,16 24.6,0.2 50.5,0.2 C69.1,0.2 83.1,5.2 97.4,16.7 L98.8,17.8 L97.9,19.6 L87.8,33 L86.2,31.8 C74.5,22.2 63.2,18 50.1,18 C35.2,18 24.8,25.6 24.8,36.6 C24.8,47.4 29.9,53.8 58.1,59.8 C88.9,66.5 102.1,78.2 102.1,98.5 C102.1,110.4 97.5,120.1 88.8,127.2 C80.3,133.8 68.8,137.6 55.7,137.6 L55.7,137.6 Z" id="Shape"></path>
                <path d="M167.2,134.8 L147.7,134.8 L147.7,2.8 L207.8,2.8 C239.5,2.8 254,26.2 254,47.9 C254,69.6 239.7,93.2 207.8,93.4 L167.1,93.4 L167.2,134.8 L167.2,134.8 Z M167.2,74.8 L207.9,74.8 C216,74.8 222.9,72 227.7,66.5 C231.9,61.7 234.2,55.2 234.2,48.1 C234.2,35.2 225.9,21.4 207.8,21.4 L167.1,21.4 L167.2,74.8 L167.2,74.8 Z" id="Shape"></path>
            </g>
        </g>
    </g>
</svg>